<mxfile host="app.diagrams.net" agent="Mozilla/5.0 (Windows NT 10.0; Win64; x64) AppleWebKit/537.36 (KHTML, like Gecko) Chrome/134.0.0.0 YaBrowser/25.4.0.0 Safari/537.36" version="27.1.4">
  <diagram name="Страница — 1" id="o4FInCxDF7dzUqNTFqnx">
    <mxGraphModel dx="882" dy="513" grid="0" gridSize="10" guides="1" tooltips="1" connect="1" arrows="1" fold="1" page="1" pageScale="1" pageWidth="827" pageHeight="1169" math="0" shadow="0">
      <root>
        <mxCell id="0" />
        <mxCell id="1" parent="0" />
        <mxCell id="M_NbSA21apbaYBT3N3xw-1" value="Задание 3" style="rounded=0;whiteSpace=wrap;html=1;fillColor=#e1d5e7;strokeColor=#9673a6;" vertex="1" parent="1">
          <mxGeometry x="30" y="30" width="110" height="50" as="geometry" />
        </mxCell>
        <mxCell id="M_NbSA21apbaYBT3N3xw-2" value="3. Могли бы вы мне не звонить? Если нужно я сам позвоню.&amp;nbsp;&lt;div&gt;4. А можете рассказать про снятие процентов?&lt;/div&gt;&lt;div&gt;5. Могу ли я без процентов перевести с карты Тинькофф на карту другого банка?&lt;/div&gt;&lt;div&gt;6. Можно ли мне повысить лимит карты?&lt;/div&gt;&lt;div&gt;7. Можно ли пользоваться картой в Новой Зеландии?&lt;/div&gt;&lt;div&gt;8. Что будет если я просрочу возвращение средств после льготного периода?&lt;/div&gt;&lt;div&gt;9. Какие есть бонусы? Кэшбэки?&lt;/div&gt;&lt;div&gt;10. Могу ли я создать вклад и какие проценты, выгоды мне?&lt;/div&gt;&lt;div&gt;11. Могу ли я закрыть свою кредитную карту? Мне она не нужна.&lt;/div&gt;&lt;div&gt;12. Какие есть другие кредитные карты с более выгодными условиями?&lt;/div&gt;" style="text;html=1;align=center;verticalAlign=middle;whiteSpace=wrap;rounded=0;" vertex="1" parent="1">
          <mxGeometry x="160" y="160" width="520" height="250" as="geometry" />
        </mxCell>
      </root>
    </mxGraphModel>
  </diagram>
</mxfile>
